<?xml version="1.0" encoding="utf-8"?>
<!-- Generator: Adobe Illustrator 16.0.0, SVG Export Plug-In . SVG Version: 6.00 Build 0)  -->
<!DOCTYPE svg PUBLIC "-//W3C//DTD SVG 1.1//EN" "http://www.w3.org/Graphics/SVG/1.1/DTD/svg11.dtd">
<svg version="1.1" id="Layer_1" xmlns="http://www.w3.org/2000/svg" xmlns:xlink="http://www.w3.org/1999/xlink" x="0px" y="0px"
	 width="672px" height="140px" viewBox="0 0 672 140" enable-background="new 0 0 672 140" xml:space="preserve">
<g id="Layer_x0020_1" display="none">
	<g id="_610876224" display="inline">
		
			<linearGradient id="SVGID_1_" gradientUnits="userSpaceOnUse" x1="238.2922" y1="0.0938" x2="271.2913" y2="0.0938" gradientTransform="matrix(1.5556 0 0 1.5556 -249.9159 16.1868)">
			<stop  offset="0" style="stop-color:#C11D2C"/>
			<stop  offset="1" style="stop-color:#C0272D"/>
		</linearGradient>
		<path fill="url(#SVGID_1_)" d="M171.889,0c-14,14-15.556,26.444-37.333,32.667c0-12.444-3.111-26.444-14-32.667h23.333l0,0
			H171.889z"/>
		
			<linearGradient id="SVGID_2_" gradientUnits="userSpaceOnUse" x1="197.45" y1="-163.7041" x2="147.7" y2="-141.9541" gradientTransform="matrix(1 0 0 -1 -163.4399 -117.5303)">
			<stop  offset="0" style="stop-color:#C11D2C"/>
			<stop  offset="1" style="stop-color:#F15B2F"/>
		</linearGradient>
		<path fill="url(#SVGID_2_)" d="M78.556,0H0.778c4.667,14,15.557,26.444,29.557,31.111l31.11,1.555
			c6.223,0,10.89,4.667,9.333,12.445v65.333c4.667,15.557,14,24.891,28,29.557V32.667C100.333,23.333,92.556,4.667,78.556,0z"/>
		
			<linearGradient id="SVGID_3_" gradientUnits="userSpaceOnUse" x1="235.6443" y1="3.3633" x2="224.9915" y2="-3.6132" gradientTransform="matrix(1.5556 0 0 1.5556 -249.9159 16.1868)">
			<stop  offset="0" style="stop-color:#F15B2F"/>
			<stop  offset="1" style="stop-color:#F18C41"/>
		</linearGradient>
		<path fill="url(#SVGID_3_)" d="M89.445,0h21.777c10.89,7.778,15.556,20.222,15.556,32.667h-20.222
			C106.556,20.222,100.333,6.222,89.445,0z"/>
		<g>
			<path fill="#F15B2F" d="M128.333,70c4.667-6.222,10.889-10.889,20.223-10.889c1.556,0,1.556,0,3.11,0l1.556,1.555v15.557h-1.556
				c-1.556,0-3.11,0-4.666,0c-9.334,0-14,6.221-15.557,15.555c0,1.557,0,3.111,0,4.666v42h-18.667V85.557c0-7.779,0-15.557,0-21.779
				v-3.111h15.557V70L128.333,70z M201.445,132.223C196.778,136.889,189,140,181.222,140c-10.889,0-20.222-6.223-23.333-17.111
				c-1.556-1.555-1.556-4.666-1.556-6.223c0-4.666,1.556-9.332,3.11-12.443c7.777-14,26.444-17.111,40.444-17.111
				c0-9.334-4.667-14-14-14c-6.223,0-12.444,1.556-17.111,4.666l-3.11,1.558L161,66.889l1.556-1.555
				c7.777-4.667,17.11-6.222,24.889-6.222c21.777,0,31.111,12.445,31.111,32.666v26.445c0,6.223,0,12.443,0,17.111l1.556,3.109H203
				L201.445,132.223z M262.112,115.111c1.556-3.111,1.556-7.777,3.11-12.445l15.556-42h18.667l-31.11,77.777h-15.557l-29.556-77.777
				h18.667l15.556,42C259,107.334,260.556,112,262.112,115.111z M338.333,59.111c23.333,0,37.333,17.112,37.333,40.444
				c0,10.889-3.111,21.778-12.444,31.11c-7.777,6.224-17.111,9.334-26.444,9.334c-7.776,0-15.556-1.556-21.776-6.224
				c-10.89-7.776-15.557-20.221-15.557-34.221c0-12.445,4.667-26.445,17.11-34.223C322.778,60.667,330.555,59.111,338.333,59.111z
				 M403.665,68.444c4.667-6.222,12.444-9.333,21.778-9.333c9.333,0,17.11,4.667,20.222,12.444c3.111-3.111,4.667-4.667,7.778-6.222
				c4.666-4.667,10.889-6.222,17.11-6.222c6.223,0,12.444,3.111,17.11,7.777C493.889,73.111,497,84,497,93.334v45.109h-17.111
				V94.889c0-9.332-3.111-20.223-14-20.223c-6.223,0-12.444,4.668-14,10.891c0,1.555-1.557,3.109-1.557,4.666v48.223h-17.11V91.777
				c0-7.777-3.111-17.111-12.444-17.111c-7.776,0-12.443,4.668-14,10.891l0,0l0,0c-1.556,3.109-1.556,4.666-1.556,6.221v46.668
				h-17.111v-56c0-6.223,0-12.444-1.556-18.667v-3.111h17.111L403.665,68.444L403.665,68.444z M531.222,138.443h-17.111V60.667
				h17.111V138.443z M532.778,42c0,6.222-4.667,10.889-10.889,10.889c-4.667,0-9.334-4.667-9.334-10.889s4.667-9.333,9.334-9.333
				C528.111,32.667,532.778,35.778,532.778,42z M565.445,68.444c1.557-1.556,3.11-3.111,6.222-4.667
				c4.668-3.111,10.89-4.667,15.557-4.667c7.778,0,14,3.111,18.667,6.222c7.776,7.777,9.333,17.111,9.333,26.443v46.668h-17.111
				v-45.11c0-9.334-3.109-18.668-14-18.668c-7.776,0-14,4.668-17.109,12.444l0,0l0,0c0,1.556,0,3.111,0,4.666v46.668h-17.111v-56
				c0-6.223-1.557-12.444-1.557-18.667v-3.111h15.557L565.445,68.444z M652.555,60.667h18.667v14h-18.667V112
				c0,3.111,0,9.334,3.111,10.889c1.556,1.557,3.11,1.557,4.666,1.557c3.111,0,4.668,0,7.777,0l1.557-1.557l1.556,14l-1.556,1.557
				C666.555,140,660.332,140,657.222,140c-6.222,0-12.444-1.557-15.556-6.223c-6.223-6.223-6.223-14-6.223-20.223v-38.89h-10.89v-14
				h10.89V43.556l17.11-4.667L652.555,60.667L652.555,60.667z M201.445,101.111c-1.556,0-3.11,0-3.11,0
				c-7.777,0-17.111,1.555-21.777,6.223c-1.556,3.109-3.111,4.666-3.111,7.777c0,6.223,4.667,10.889,10.89,10.889
				c7.777,0,14-4.666,15.556-10.889c0-1.557,1.556-3.111,1.556-3.111v-10.889H201.445z M338.333,73.111
				c-15.557,0-20.224,14-20.224,26.443c0,9.334,3.111,20.223,10.891,24.889c3.109,0,6.222,1.557,7.776,1.557
				c3.111,0,4.667-1.557,7.777-1.557C353.889,119.777,357,108.889,357,99.557C357,87.111,352.333,73.111,338.333,73.111z"/>
		</g>
		<path fill="#F15B2F" d="M115.889,135.334h12.444V96.443c0-1.555,1.556-3.109,1.556-6.221c1.556-9.334,7.777-17.111,17.111-17.111
			c1.556,0,3.11,1.555,4.666,1.555V62.222c-1.556,0-1.556-1.556-3.11-1.556c-9.334,0-17.111,6.222-20.223,17.111h-1.557V62.222
			h-12.443c1.556,7.778,1.556,15.555,1.556,23.333V135.334z M217,135.334c-1.557-4.668-1.557-10.891-1.557-17.111V91.777
			c0-15.555-4.667-31.111-28-31.111c-9.333,0-17.11,3.111-23.333,7.778l3.11,7.779c4.667-3.111,12.444-4.668,18.667-4.668
			c15.556,0,17.111,10.889,17.111,17.11v1.558c-28-1.558-45.111,9.332-45.111,26.442c0,10.89,7.777,21.778,23.333,21.778
			c10.89,0,18.667-6.223,21.778-10.889l0,0l1.556,7.777H217V135.334z M203,112c0,1.557,0,3.111-1.557,3.111
			c-1.556,6.223-7.777,12.443-17.11,12.443c-6.223,0-12.444-3.111-12.444-12.443c0-14,17.111-17.111,31.111-15.557V112z
			 M226.333,62.222l28,73.112h12.443l29.557-73.112h-14l-14,42c-3.111,6.221-4.667,12.442-6.223,18.666h-1.556
			c0-6.224-3.111-12.445-4.667-18.666l-15.556-42H226.333z M338.333,60.667c-20.224,0-35.777,15.556-35.777,38.89
			c0,23.332,13.999,38.889,34.222,38.889c17.111,0,35.777-12.444,35.777-38.889C372.555,76.223,358.555,60.667,338.333,60.667z
			 M338.333,71.557c15.556,0,21.776,15.555,21.776,28c0,15.555-9.333,28-23.333,28c-12.443,0-21.776-12.445-21.776-28
			C315,85.557,322.778,71.557,338.333,71.557z M389.666,135.334h13.999V91.777c0-1.555,0-4.666,0-6.223
			c3.111-6.222,7.778-14,17.111-14s15.556,9.334,15.556,20.223v43.557h12.444V90.223c0-1.557,0-4.666,1.556-6.223
			c1.557-6.223,7.777-12.443,15.557-12.443c10.889,0,15.556,9.332,15.556,23.332v40.445h12.444v-42
			c0-26.445-14-32.667-23.334-32.667c-7.777,0-12.444,3.111-17.11,6.222c-1.556,1.556-4.667,4.667-7.778,9.333l0,0
			c-3.11-9.333-10.889-15.556-20.222-15.556c-12.443,0-18.667,7.778-23.334,14l0,0l-1.556-12.444h-10.889c0,6.222,0,12.444,0,20.222
			V135.334L389.666,135.334z M529.666,135.334V62.222h-14v73.112H529.666z M521.889,34.222c-4.667,0-7.778,3.111-7.778,7.778
			s3.111,9.333,7.778,9.333c6.222,0,9.333-4.667,9.333-9.333S528.111,34.222,521.889,34.222z M551.445,135.334h12.444V91.777
			c0-1.555,1.556-4.666,1.556-6.223c3.11-7.777,9.333-12.443,18.666-12.443c12.444,0,15.557,9.332,15.557,20.223v42h14V91.777
			c0-24.889-15.557-31.111-26.444-31.111s-20.222,7.778-23.333,14l0,0l-1.556-12.444h-10.89c0,6.222,0,12.444,0,20.221V135.334
			L551.445,135.334z M637,45.111v17.111H626.11v10.889H637v40.443c0,7.778,1.555,14,6.222,18.668c3.11,3.11,7.778,4.666,14,4.666
			c4.667,0,9.333,0,10.889-1.556V126c-1.556,0-4.666,0-7.776,0c-7.778,0-9.334-4.666-9.334-14V73.111h18.666V62.222H651V42
			L637,45.111z"/>
	</g>
</g>
<g>
	<g>
		<linearGradient id="SVGID_4_" gradientUnits="userSpaceOnUse" x1="100.9377" y1="19.0171" x2="196.2308" y2="19.0171">
			<stop  offset="0" style="stop-color:#C00A1E"/>
			<stop  offset="1" style="stop-color:#BF161F"/>
		</linearGradient>
		<path fill-rule="evenodd" clip-rule="evenodd" fill="url(#SVGID_4_)" d="M172.803,3.909
			c-13.318,13.129-14.779,25.045-35.204,30.466c-0.121-12.059-2.454-24.766-13.229-30.715l21.309,0.14l0.026,0.043L172.803,3.909z"
			/>
		<linearGradient id="SVGID_5_" gradientUnits="userSpaceOnUse" x1="47.9377" y1="52.0859" x2="7.4979" y2="36.8379">
			<stop  offset="0" style="stop-color:#C5091C"/>
			<stop  offset="0.2522" style="stop-color:#C70D1C"/>
			<stop  offset="0.4773" style="stop-color:#CC171C"/>
			<stop  offset="0.692" style="stop-color:#D52A1B"/>
			<stop  offset="0.899" style="stop-color:#E1431A"/>
			<stop  offset="0.9913" style="stop-color:#E8511A"/>
		</linearGradient>
		<path fill-rule="evenodd" clip-rule="evenodd" fill="url(#SVGID_5_)" d="M85.203,3.66H11.139
			c4.182,12.875,14.46,24.859,27.722,30.055l29.522,0.088c6.319,0.93,9.614,4.562,9.106,12.464l0.176,62.237
			c4.366,13.458,12.777,22.873,26.343,27.142l0.217-101.131C104.441,25.14,98.352,8.029,85.203,3.66z"/>
		<linearGradient id="SVGID_6_" gradientUnits="userSpaceOnUse" x1="125.3206" y1="27.0166" x2="100.2759" y2="10.1237">
			<stop  offset="0" style="stop-color:#E9521C"/>
			<stop  offset="1" style="stop-color:#F18838"/>
		</linearGradient>
		<path fill-rule="evenodd" clip-rule="evenodd" fill="url(#SVGID_6_)" d="M94.624,3.66l21.309,0.14
			c10.284,7.427,14.112,18.363,14.363,30.693l-18.929-0.002C111.246,22.431,105.399,9.608,94.624,3.66z"/>
	</g>
	<g>
		<path fill="#E95419" d="M115.719,127.291H132.6V92.53c0-1.96,0.262-3.745,0.568-5.271c1.482-7.579,6.979-12.807,15.092-12.807
			c2.094,0,3.577,0.262,4.972,0.524V58.99c-1.396-0.305-2.355-0.435-4.013-0.435c-7.111,0-14.962,4.833-18.277,14.374h-0.523
			l-0.567-12.851h-14.7c0.437,6.099,0.567,12.546,0.567,21.651V127.291z M216.309,127.291c-0.698-4.137-0.961-10.061-0.961-16.16
			V86.868c0-14.637-6.193-28.313-27.655-28.313c-10.557,0-19.237,2.918-24.166,5.924l3.316,11.063
			c4.536-2.918,11.385-4.965,17.971-4.965c11.821,0,13.609,7.317,13.609,11.717v1.09c-24.733-0.131-39.693,8.45-39.693,25.394
			c0,10.239,7.545,20.038,21.025,20.038c8.636,0,15.66-3.746,19.759-8.974h0.437l1.091,7.449H216.309z M198.86,103.682
			c0,1.091-0.174,2.483-0.567,3.747c-1.526,4.792-6.455,9.234-13.172,9.234c-5.365,0-9.642-3.05-9.642-9.671
			c0-10.193,11.429-12.807,23.381-12.543V103.682z M224.246,60.078l24.908,67.213h16.619l25.562-67.213H273.45l-10.556,34.108
			c-1.789,6.056-3.314,11.282-4.536,16.815h-0.437c-1.222-5.533-2.618-10.891-4.536-16.815l-10.862-34.108H224.246z M330.2,58.555
			c-20.195,0-34.634,13.548-34.634,35.631c0,21.52,14.569,34.63,33.543,34.63c17.056,0,34.373-11.063,34.373-35.762
			C363.483,72.624,350.135,58.555,330.2,58.555L330.2,58.555z M329.809,70.969c11.559,0,16.227,12.022,16.227,22.521
			c0,13.503-6.762,23.044-16.358,23.044c-10.337,0-16.619-9.802-16.619-22.783C313.058,82.556,317.857,70.969,329.809,70.969
			L329.809,70.969z M377.354,127.291h16.49V87.521c0-1.915,0.262-3.832,0.959-5.487c1.526-4.705,5.757-9.671,12.083-9.671
			c7.852,0,11.56,6.622,11.56,15.987v38.941h16.487V86.998c0-1.96,0.394-4.007,0.829-5.662c1.788-4.834,6.02-8.974,11.821-8.974
			c8.112,0,11.952,6.622,11.952,17.817v37.111h16.488V87.695c0-21.519-11.254-29.141-22.421-29.141
			c-5.496,0-9.727,1.394-13.436,4.007c-3.183,1.917-5.933,4.705-8.243,8.407h-0.306c-2.879-7.448-9.728-12.414-18.539-12.414
			c-11.254,0-17.316,6.228-20.632,11.457h-0.393l-0.698-9.934h-14.569c0.437,5.795,0.566,12.285,0.566,19.996V127.291z
			 M510.919,127.291V60.078h-17.054v67.213H510.919z M502.414,32.069c-5.627,0-9.509,4.008-9.509,9.236
			c0,5.139,3.707,9.104,9.379,9.104c5.888,0,9.595-3.965,9.595-9.104C511.748,36.077,508.172,32.069,502.414,32.069L502.414,32.069z
			 M529.067,127.291h17.011V87.827c0-1.962,0.176-4.009,0.699-5.533c1.788-5.096,6.456-9.932,13.218-9.932
			c9.203,0,12.779,7.318,12.779,16.988v37.94h16.881v-39.9c0-21.214-12.083-28.836-23.771-28.836
			c-11.123,0-18.408,6.358-21.288,11.588h-0.436l-0.829-10.065H528.5c0.436,5.795,0.566,12.285,0.566,19.996V127.291z M609.85,44.92
			v15.158h-9.596v12.72h9.596v31.582c0,8.841,1.66,14.896,5.237,18.774c3.14,3.44,8.373,5.488,14.567,5.488
			c5.366,0,9.77-0.654,12.214-1.656l-0.261-12.937c-1.527,0.393-3.71,0.826-6.587,0.826c-6.456,0-8.682-4.312-8.682-12.413V72.798
			h16.097v-12.72h-16.097V40.913L609.85,44.92z"/>
	</g>
</g>
</svg>
